<svg width="40" height="40" viewBox="0 0 40 40" fill="none" xmlns="http://www.w3.org/2000/svg">
<circle cx="20" cy="20" r="20" fill="#159822"/>
<path d="M14.5933 18.6762C14.2227 19.022 13.6392 19.022 13.2686 18.6762C12.9105 18.3303 12.9105 17.7858 13.2686 17.44L18.8196 12.2594C18.9915 12.0989 19.2303 12 19.4949 12C19.7595 12 19.9982 12.0989 20.171 12.2594L25.722 17.44C26.0927 17.7858 26.0927 18.3303 25.722 18.6762C25.3514 19.022 24.7679 19.022 24.3973 18.6762L20.4356 14.9669V28.1346C20.4365 28.6168 20.0124 29 19.4957 29C18.979 29 18.5683 28.6168 18.5683 28.1346V14.9677L14.5933 18.6762Z" fill="white"/>
</svg>
